# xmcd CD database file
#
# Track frame offsets:
#	150
#	20922
#	37100
#	52820
#	68697
#	79897
#	100885
#	115290
#	129852
#	147397
#	164785
#	181390
#	202285
#	223472
#	240334
#
# Disc length: 3433 seconds
#
# Revision: 0
# Processed by: cddbd v1.5.2PL0 Copyright (c) Steve Scherf et al.
# Submitted via: jetAudio 7
#
DISCID=e60d670f
DTITLE=Pussycat - Pussycat Gold
DYEAR=1900
DGENRE=Oldies
TTITLE0=Mississippi
TTITLE1=Wet Day in September
TTITLE2=Teenage Queenie
TTITLE3=It's the Same Old Song
TTITLE4=Georgie
TTITLE5=Then the Music Stopped
TTITLE6=Mexicalli Lane
TTITLE7=Goodbye to Lovin
TTITLE8=Broken Souveniers
TTITLE9=Smile
TTITLE10=Bad Boy
TTITLE11=If You Ever Come To Amsterdam
TTITLE12=I'll Be Your Woman
TTITLE13=Daddy
TTITLE14=Help me Living On
EXTD=Pussycat Gold
EXTT0=
EXTT1=
EXTT2=
EXTT3=
EXTT4=
EXTT5=
EXTT6=
EXTT7=
EXTT8=
EXTT9=
EXTT10=
EXTT11=
EXTT12=
EXTT13=
EXTT14=
PLAYORDER=
